<svg width="138" height="137" viewBox="0 0 138 137" fill="none" xmlns="http://www.w3.org/2000/svg">
<rect x="0.5" width="137" height="137" rx="68.5" fill="#FFEBE3"/>
<g clip-path="url(#clip0_6_85)">
<path d="M70.8081 132.423C70.6743 132.423 70.5437 132.394 70.4196 132.338C69.9561 132.126 69.7536 131.574 69.9691 131.111C71.4611 127.892 71.7647 124.232 70.8212 120.811L70.7363 120.501L70.4262 120.579C69.4663 120.824 68.4706 121.026 67.4651 121.186L67.1778 121.232L67.1908 121.522C67.217 122.107 67.0015 122.681 66.5934 123.106C66.2016 123.494 65.676 123.71 65.1177 123.71H65.0557C63.6356 123.71 61.7192 122.665 60.0379 120.987C58.967 119.916 58.1345 118.718 57.6905 117.615C56.9527 115.783 57.5208 114.83 57.9256 114.428C58.3206 114.046 58.8495 113.834 59.4045 113.834C59.4372 113.834 59.4698 113.834 59.5025 113.834L59.793 113.847L59.8387 113.56C59.9954 112.557 60.2011 111.562 60.446 110.602L60.5243 110.292L60.2142 110.207C58.9213 109.858 57.5828 109.681 56.2443 109.681C54.0471 109.681 51.9185 110.145 49.9173 111.059C49.7932 111.114 49.6626 111.144 49.5288 111.144C49.3949 111.144 49.2643 111.114 49.1403 111.059C48.6767 110.844 48.4743 110.295 48.6897 109.831C51.4582 103.87 57.4947 100.018 64.0633 100.018C64.4518 100.018 64.8468 100.031 65.2385 100.057L65.4148 100.07L65.5226 99.9295C71.2162 92.3457 80.217 87.9971 90.2234 87.9971C90.8469 87.9971 91.4803 88.0134 92.1071 88.0493C92.5805 88.0754 92.9559 88.4509 92.982 88.9242C93.5566 99.7173 89.2244 109.404 81.1018 115.506L80.9614 115.613L80.9744 115.79C81.4609 122.753 77.5334 129.403 71.1999 132.338C71.0791 132.394 70.9485 132.423 70.8147 132.423H70.8081ZM78.663 117.151C76.8185 118.264 74.8466 119.182 72.8029 119.877L72.5123 119.975L72.5939 120.272C73.3481 122.975 73.4134 125.848 72.7833 128.581L72.5776 129.472L73.2991 128.914C76.8805 126.145 79.0156 121.963 79.1593 117.438L79.1789 116.838L78.6663 117.148L78.663 117.151ZM59.1792 116.005C59.1792 116.609 59.7538 118.085 61.3503 119.681C62.9402 121.274 64.4191 121.849 65.0231 121.849H65.3495V121.522C65.3561 120.918 64.7815 119.443 63.185 117.846C61.5951 116.256 60.1162 115.679 59.5122 115.679H59.1858V116.005H59.1792ZM79.0221 91.9408C69.6165 95.6626 63.11 103.971 61.618 114.174L61.5853 114.399L61.7845 114.507C62.7802 115.048 63.6878 115.731 64.4844 116.54C65.2973 117.34 65.9796 118.248 66.5216 119.244L66.6293 119.443L66.8546 119.41C77.0535 117.918 85.3655 111.412 89.084 102.003L89.1623 101.804L79.2213 91.8592L79.0221 91.9376V91.9408ZM56.2443 107.833C57.7689 107.833 59.287 108.036 60.7561 108.437L61.0532 108.519L61.1511 108.228C61.8465 106.188 62.7639 104.216 63.8772 102.368L64.1873 101.853L63.5866 101.872C59.0585 102.019 54.8764 104.157 52.1046 107.742L51.5464 108.464L52.4344 108.261C53.6815 107.977 54.9645 107.833 56.2443 107.833ZM90.1711 89.8482C87.3047 89.8482 84.4514 90.2465 81.6959 91.0333L81.1638 91.1867L89.8447 99.8708L89.9981 99.3354C90.8469 96.3547 91.2452 93.2728 91.1767 90.1746L91.1701 89.8612L90.8567 89.8547C90.6543 89.8514 90.4486 89.8482 90.2495 89.8482H90.1744H90.1711Z" fill="#FC5F00"/>
<path d="M45.9244 136.129C45.82 136.129 45.7188 136.112 45.6208 136.076C45.389 135.995 45.1997 135.828 45.0919 135.606C44.9842 135.384 44.9712 135.133 45.0528 134.901L47.1977 128.737C49.2381 122.88 52.5551 122.009 54.3507 122.009C54.5302 122.009 54.7065 122.019 54.873 122.038C57.1257 122.293 58.8723 123.994 59.1171 126.178C59.2347 127.232 59.0518 128.852 57.5109 130.585C56.1658 132.093 54.0764 133.35 51.2982 134.317L46.2313 136.083C46.1334 136.116 46.0322 136.135 45.9277 136.135L45.9244 136.129ZM54.318 123.853C52.1502 123.853 50.1424 125.907 48.9443 129.345L47.4262 133.703L50.6877 132.567C55.8557 130.768 57.4815 128.192 57.2791 126.383C57.1322 125.061 56.0548 124.03 54.6641 123.873C54.5498 123.86 54.4323 123.853 54.318 123.853Z" fill="#6E00BE"/>
<path d="M78.6958 107.625C77.2822 107.625 75.9567 107.073 74.9577 106.074C73.9587 105.075 73.4102 103.746 73.4102 102.336C73.4102 100.925 73.9587 99.5933 74.9577 98.5943C75.9567 97.5953 77.2854 97.0469 78.6958 97.0469C80.1061 97.0469 81.4381 97.5953 82.4371 98.5943C84.4939 100.658 84.4939 104.011 82.4371 106.074C81.4381 107.073 80.1094 107.621 78.699 107.621L78.6958 107.625ZM78.6958 98.8979C77.7784 98.8979 76.9165 99.2538 76.2668 99.9035C75.6172 100.553 75.258 101.415 75.258 102.332C75.258 103.25 75.6139 104.115 76.2636 104.765C76.9132 105.414 77.7751 105.773 78.6958 105.773C79.6164 105.773 80.475 105.418 81.1247 104.768L81.1541 104.735C82.4763 103.393 82.4633 101.226 81.1215 99.9002C80.475 99.2538 79.6099 98.8947 78.6925 98.8947L78.6958 98.8979Z" fill="#6E00BE"/>
</g>
<defs>
<clipPath id="clip0_6_85">
<rect width="49" height="49" fill="white" transform="translate(44.5 88)"/>
</clipPath>
</defs>
</svg>
