<svg width="138" height="137" viewBox="0 0 138 137" fill="none" xmlns="http://www.w3.org/2000/svg">
<rect x="0.5" width="137" height="137" rx="68.5" fill="#E119A0" fill-opacity="0.1"/>
<g clip-path="url(#clip0_6_131)">
<path d="M74.3537 105.431H63.6401C62.4578 105.431 61.498 104.471 61.498 103.288V102.217C61.498 98.0762 64.8541 94.7168 68.9985 94.7168C73.1428 94.7168 76.499 98.073 76.499 102.217V103.288C76.499 104.471 75.5392 105.431 74.3569 105.431H74.3537ZM68.9985 96.8589C66.0428 96.8621 63.6464 99.2585 63.6432 102.214V103.285H74.3569V102.214C74.3537 99.2585 71.9574 96.8621 69.0017 96.8589H68.9985Z" fill="#E119A0"/>
<path d="M68.9988 96.859C65.4488 96.859 62.5693 93.9796 62.5693 90.4295C62.5693 86.8795 65.4488 84 68.9988 84C72.5488 84 75.4282 86.8795 75.4282 90.4295C75.4251 93.9796 72.5488 96.8526 68.9988 96.859ZM68.9988 86.1453C66.631 86.1453 64.7146 88.0649 64.7146 90.4295C64.7146 92.7941 66.6342 94.7137 68.9988 94.7137C71.3634 94.7137 73.283 92.7941 73.283 90.4295C73.283 88.0649 71.3634 86.1453 68.9988 86.1453Z" fill="#6E00BE"/>
<path d="M59.3557 129H48.6421C47.4598 129 46.5 128.04 46.5 126.858V125.787C46.5 121.645 49.8562 118.286 54.0005 118.286C58.1449 118.286 61.501 121.642 61.501 125.787V126.858C61.501 128.04 60.5412 129 59.3589 129H59.3557ZM54.0005 120.428C51.0448 120.431 48.6485 122.828 48.6453 125.783V126.855H59.3589V125.783C59.3557 122.828 56.9594 120.431 54.0037 120.428H54.0005Z" fill="#E119A0"/>
<path d="M53.9998 120.428C50.4497 120.428 47.5703 117.549 47.5703 113.999C47.5703 110.449 50.4497 107.569 53.9998 107.569C57.5498 107.569 60.4292 110.449 60.4292 113.999C60.426 117.549 57.5498 120.422 53.9998 120.428ZM53.9998 109.715C51.632 109.715 49.7156 111.634 49.7156 113.999C49.7156 116.363 51.6352 118.283 53.9998 118.283C56.3643 118.283 58.2839 116.363 58.2839 113.999C58.2839 111.634 56.3643 109.715 53.9998 109.715Z" fill="#6E00BE"/>
<path d="M89.3548 129H78.6411C77.4589 129 76.499 128.04 76.499 126.858V125.787C76.499 121.645 79.8552 118.286 83.9995 118.286C88.1439 118.286 91.5 121.642 91.5 125.787V126.858C91.5 128.04 90.5402 129 89.358 129H89.3548ZM83.9995 120.428C81.0438 120.431 78.6475 122.828 78.6443 125.783V126.855H89.358V125.783C89.3548 122.828 86.9584 120.431 84.0027 120.428H83.9995Z" fill="#E119A0"/>
<path d="M83.9958 120.428C80.4458 120.428 77.5664 117.549 77.5664 113.999C77.5664 110.449 80.4458 107.569 83.9958 107.569C87.5458 107.569 90.4253 110.449 90.4253 113.999C90.4221 117.549 87.5458 120.422 83.9958 120.428ZM83.9958 109.715C81.6281 109.715 79.7116 111.634 79.7116 113.999C79.7116 116.363 81.6312 118.283 83.9958 118.283C86.3604 118.283 88.28 116.363 88.28 113.999C88.28 111.634 86.3604 109.715 83.9958 109.715Z" fill="#6E00BE"/>
<path d="M68.9978 115.074C68.4067 115.074 67.9268 114.594 67.9268 114.003V108.647C67.9268 108.056 68.4067 107.576 68.9978 107.576C69.589 107.576 70.0689 108.056 70.0689 108.647V114.003C70.0689 114.594 69.589 115.074 68.9978 115.074Z" fill="#E119A0"/>
<path d="M73.2824 118.286C73.0503 118.286 72.8247 118.21 72.6404 118.073L68.9982 115.34L65.356 118.073C64.8824 118.429 64.2118 118.334 63.8559 117.86C63.4999 117.387 63.5953 116.716 64.0688 116.36L68.353 113.147C68.7344 112.861 69.2588 112.861 69.6402 113.147L73.9243 116.36C74.3979 116.716 74.4932 117.387 74.1373 117.86C73.9339 118.131 73.6161 118.289 73.2792 118.289L73.2824 118.286Z" fill="#E119A0"/>
</g>
<defs>
<clipPath id="clip0_6_131">
<rect width="45" height="45" fill="white" transform="translate(46.5 84)"/>
</clipPath>
</defs>
</svg>
