<svg width="40" height="41" viewBox="0 0 40 41" fill="none" xmlns="http://www.w3.org/2000/svg">
<rect x="0.660156" y="0.629883" width="38.59" height="40" rx="4" fill="#FFEEE7"/>
<path fill-rule="evenodd" clip-rule="evenodd" d="M19.9502 11.3799C17.4969 11.3799 15.1442 12.3544 13.4095 14.0891C11.6747 15.8239 10.7002 18.1766 10.7002 20.6299C10.7002 23.0831 11.6747 25.4359 13.4095 27.1706C15.1442 28.9053 17.4969 29.8799 19.9502 29.8799C21.1902 29.8799 22.2002 28.8799 22.2002 27.6299V27.0699C22.2002 26.6699 22.2002 26.3899 22.2302 26.1399C22.4502 24.4599 23.7802 23.1399 25.4602 22.9099C25.7102 22.8799 25.9802 22.8799 26.3902 22.8799H26.9502C28.1902 22.8799 29.2002 21.8799 29.2002 20.6299C29.2002 15.5299 25.0602 11.3799 19.9502 11.3799ZM9.2002 20.6299C9.2002 17.7788 10.3328 15.0445 12.3488 13.0285C14.3648 11.0125 17.0991 9.87988 19.9502 9.87988C22.8013 9.87988 25.5356 11.0125 27.5516 13.0285C29.5676 15.0445 30.7002 17.7788 30.7002 20.6299C30.7002 21.6244 30.3051 22.5783 29.6018 23.2815C28.8986 23.9848 27.9448 24.3799 26.9502 24.3799H26.4502C25.9602 24.3799 25.7902 24.3799 25.6502 24.3999C24.6502 24.5299 23.8502 25.3299 23.7202 26.3399C23.7002 26.4699 23.7002 26.6399 23.7002 27.1299V27.6299C23.7002 28.6244 23.3051 29.5783 22.6018 30.2815C21.8986 30.9848 20.9448 31.3799 19.9502 31.3799C17.0991 31.3799 14.3648 30.2473 12.3488 28.2313C10.3328 26.2153 9.2002 23.481 9.2002 20.6299ZM17.9502 15.3799C17.8839 15.3799 17.8203 15.4062 17.7734 15.4531C17.7265 15.5 17.7002 15.5636 17.7002 15.6299C17.7002 15.6962 17.7265 15.7598 17.7734 15.8067C17.8203 15.8535 17.8839 15.8799 17.9502 15.8799C18.0165 15.8799 18.0801 15.8535 18.127 15.8067C18.1739 15.7598 18.2002 15.6962 18.2002 15.6299C18.2002 15.5636 18.1739 15.5 18.127 15.4531C18.0801 15.4062 18.0165 15.3799 17.9502 15.3799ZM16.2002 15.6299C16.2002 15.4001 16.2455 15.1725 16.3334 14.9602C16.4214 14.7479 16.5503 14.5549 16.7128 14.3924C16.8753 14.2299 17.0682 14.101 17.2805 14.0131C17.4928 13.9251 17.7204 13.8799 17.9502 13.8799C18.18 13.8799 18.4076 13.9251 18.6199 14.0131C18.8322 14.101 19.0251 14.2299 19.1876 14.3924C19.3501 14.5549 19.479 14.7479 19.567 14.9602C19.6549 15.1725 19.7002 15.4001 19.7002 15.6299C19.7002 16.094 19.5158 16.5391 19.1876 16.8673C18.8594 17.1955 18.4143 17.3799 17.9502 17.3799C17.4861 17.3799 17.0409 17.1955 16.7128 16.8673C16.3846 16.5391 16.2002 16.094 16.2002 15.6299ZM23.9502 16.3799C23.8839 16.3799 23.8203 16.4062 23.7734 16.4531C23.7265 16.5 23.7002 16.5636 23.7002 16.6299C23.7002 16.6962 23.7265 16.7598 23.7734 16.8067C23.8203 16.8535 23.8839 16.8799 23.9502 16.8799C24.0165 16.8799 24.0801 16.8535 24.127 16.8067C24.1739 16.7598 24.2002 16.6962 24.2002 16.6299C24.2002 16.5636 24.1739 16.5 24.127 16.4531C24.0801 16.4062 24.0165 16.3799 23.9502 16.3799ZM22.2002 16.6299C22.2002 16.1658 22.3846 15.7206 22.7128 15.3924C23.0409 15.0643 23.4861 14.8799 23.9502 14.8799C24.4143 14.8799 24.8594 15.0643 25.1876 15.3924C25.5158 15.7206 25.7002 16.1658 25.7002 16.6299C25.7002 17.094 25.5158 17.5391 25.1876 17.8673C24.8594 18.1955 24.4143 18.3799 23.9502 18.3799C23.4861 18.3799 23.0409 18.1955 22.7128 17.8673C22.3846 17.5391 22.2002 17.094 22.2002 16.6299ZM14.9502 20.3799C14.8839 20.3799 14.8203 20.4062 14.7734 20.4531C14.7265 20.5 14.7002 20.5636 14.7002 20.6299C14.7002 20.6962 14.7265 20.7598 14.7734 20.8067C14.8203 20.8535 14.8839 20.8799 14.9502 20.8799C15.0165 20.8799 15.0801 20.8535 15.127 20.8067C15.1739 20.7598 15.2002 20.6962 15.2002 20.6299C15.2002 20.5636 15.1739 20.5 15.127 20.4531C15.0801 20.4062 15.0165 20.3799 14.9502 20.3799ZM13.2002 20.6299C13.2002 20.1658 13.3846 19.7206 13.7128 19.3924C14.0409 19.0643 14.4861 18.8799 14.9502 18.8799C15.4143 18.8799 15.8594 19.0643 16.1876 19.3924C16.5158 19.7206 16.7002 20.1658 16.7002 20.6299C16.7002 21.094 16.5158 21.5391 16.1876 21.8673C15.8594 22.1955 15.4143 22.3799 14.9502 22.3799C14.4861 22.3799 14.0409 22.1955 13.7128 21.8673C13.3846 21.5391 13.2002 21.094 13.2002 20.6299Z" fill="#652407"/>
</svg>
