<svg width="39" height="41" viewBox="0 0 39 41" fill="none" xmlns="http://www.w3.org/2000/svg">
<rect y="0.629883" width="38.59" height="40" rx="4" fill="#FFEEE7"/>
<path fill-rule="evenodd" clip-rule="evenodd" d="M15.3008 9.87988C15.7108 9.87988 16.0508 10.2199 16.0508 10.6299V11.8799H22.5508V10.6299C22.5508 10.431 22.6298 10.2402 22.7705 10.0996C22.9111 9.9589 23.1019 9.87988 23.3008 9.87988C23.4997 9.87988 23.6905 9.9589 23.8311 10.0996C23.9718 10.2402 24.0508 10.431 24.0508 10.6299V11.8799C24.6308 11.8799 25.1208 11.8899 25.5308 11.9199C26.0808 11.9699 26.5608 12.0599 27.0008 12.2899C27.7008 12.6499 28.2808 13.2199 28.6408 13.9299C28.8708 14.3699 28.9608 14.8499 29.0108 15.3999C29.0508 15.9299 29.0508 16.5899 29.0508 17.3999V21.1299C29.0508 21.3288 28.9718 21.5196 28.8311 21.6602C28.6905 21.8009 28.4997 21.8799 28.3008 21.8799C28.1019 21.8799 27.9111 21.8009 27.7705 21.6602C27.6298 21.5196 27.5508 21.3288 27.5508 21.1299V19.3799H11.0508V25.8299C11.0508 26.6799 11.0508 27.2799 11.0908 27.7299C11.1308 28.1899 11.1908 28.4499 11.2908 28.6499C11.5108 29.0699 11.8608 29.4199 12.2808 29.6299C12.4808 29.7299 12.7408 29.7999 13.1908 29.8399C13.6508 29.8799 14.2508 29.8799 15.1008 29.8799H19.3008C19.4997 29.8799 19.6905 29.9589 19.8311 30.0996C19.9718 30.2402 20.0508 30.431 20.0508 30.6299C20.0508 30.8288 19.9718 31.0196 19.8311 31.1602C19.6905 31.3009 19.4997 31.3799 19.3008 31.3799H15.0708C14.2608 31.3799 13.6008 31.3799 13.0708 31.3399C12.5611 31.3154 12.0613 31.1897 11.6008 30.9699C10.8946 30.6102 10.3204 30.0361 9.96078 29.3299C9.74125 28.8692 9.61548 28.3696 9.59078 27.8599C9.55078 27.3299 9.55078 26.6699 9.55078 25.8599V17.3999C9.55078 16.5899 9.55078 15.9299 9.59078 15.3999C9.64078 14.8499 9.73078 14.3699 9.96078 13.9299C10.3208 13.2299 10.8908 12.6499 11.6008 12.2899C12.0408 12.0599 12.5208 11.9699 13.0708 11.9199C13.4808 11.8899 13.9708 11.8799 14.5508 11.8799V10.6299C14.5508 10.2199 14.8908 9.87988 15.3008 9.87988ZM14.5508 13.3799C13.9808 13.3799 13.5508 13.3799 13.1908 13.4199C12.7408 13.4599 12.4808 13.5199 12.2808 13.6199C11.8608 13.8399 11.5108 14.1899 11.3008 14.6099C11.2008 14.8099 11.1308 15.0699 11.0908 15.5199C11.0508 15.9799 11.0508 16.5799 11.0508 17.4299V17.8799H27.5508V17.4299C27.5508 16.5799 27.5508 15.9799 27.5108 15.5299C27.5055 15.213 27.4375 14.9003 27.3108 14.6099C27.0928 14.1867 26.7461 13.8436 26.3208 13.6299C26.0341 13.501 25.7249 13.4296 25.4108 13.4199C25.0508 13.3899 24.6208 13.3799 24.0508 13.3799V14.6299C24.0508 14.8288 23.9718 15.0196 23.8311 15.1602C23.6905 15.3009 23.4997 15.3799 23.3008 15.3799C23.1019 15.3799 22.9111 15.3009 22.7705 15.1602C22.6298 15.0196 22.5508 14.8288 22.5508 14.6299V13.3799H16.0508V14.6299C16.0508 14.8288 15.9718 15.0196 15.8311 15.1602C15.6905 15.3009 15.4997 15.3799 15.3008 15.3799C15.1019 15.3799 14.9111 15.3009 14.7705 15.1602C14.6298 15.0196 14.5508 14.8288 14.5508 14.6299V13.3799ZM28.8308 24.5999C29.1308 24.8999 29.1308 25.3699 28.8308 25.6599L24.3308 30.1599C24.0308 30.4599 23.5608 30.4599 23.2708 30.1599L21.2708 28.1599C21.1971 28.0912 21.138 28.0084 21.097 27.9164C21.056 27.8244 21.034 27.7251 21.0322 27.6244C21.0304 27.5237 21.0489 27.4237 21.0867 27.3303C21.1244 27.2369 21.1805 27.1521 21.2517 27.0808C21.323 27.0096 21.4078 26.9535 21.5012 26.9158C21.5946 26.878 21.6946 26.8595 21.7953 26.8613C21.896 26.8631 21.9953 26.8851 22.0873 26.9261C22.1793 26.9671 22.2621 27.0262 22.3308 27.0999L23.8008 28.5699L27.7708 24.5999C28.0708 24.2999 28.5408 24.2999 28.8308 24.5999Z" fill="#652407"/>
</svg>
