<svg width="39" height="41" viewBox="0 0 39 41" fill="none" xmlns="http://www.w3.org/2000/svg">
<rect y="0.629883" width="38.59" height="40" rx="4" fill="#FFEEE7"/>
<path d="M19.1798 10.88C19.2598 10.88 19.3398 10.88 19.4198 10.88C20.2298 10.88 20.7898 10.88 21.2698 11.01C22.1099 11.2329 22.8464 11.7408 23.3535 12.4467C23.8606 13.1526 24.1067 14.0127 24.0498 14.88H26.1298C26.6598 14.88 27.1098 14.88 27.4698 14.91C28.1359 14.9416 28.7663 15.2204 29.2379 15.6919C29.7094 16.1635 29.9882 16.7939 30.0198 17.46C30.0498 17.82 30.0498 18.26 30.0498 18.8V26.46C30.0498 26.99 30.0498 27.44 30.0198 27.8C29.9882 28.4661 29.7094 29.0965 29.2379 29.568C28.7663 30.0396 28.1359 30.3184 27.4698 30.35C27.1098 30.38 26.6698 30.38 26.1298 30.38H12.4698C11.9398 30.38 11.4898 30.38 11.1298 30.35C10.7554 30.3332 10.3881 30.2414 10.0498 30.08C9.5333 29.8165 9.11329 29.3965 8.8498 28.88C8.68843 28.5417 8.59661 28.1744 8.5798 27.8C8.5498 27.44 8.5498 27 8.5498 26.46V18.8C8.5498 18.27 8.5498 17.82 8.5798 17.46C8.6114 16.7939 8.89021 16.1635 9.36175 15.6919C9.83329 15.2204 10.4637 14.9416 11.1298 14.91C11.4898 14.88 11.9298 14.88 12.4698 14.88H14.5498C14.4929 14.0127 14.739 13.1526 15.2461 12.4467C15.7532 11.7408 16.4897 11.2329 17.3298 11.01C17.9387 10.8903 18.5601 10.8466 19.1798 10.88ZM14.5498 16.38H12.4998C11.9298 16.38 11.5398 16.38 11.2498 16.4C10.9598 16.43 10.8198 16.47 10.7298 16.52C10.4998 16.64 10.3098 16.82 10.1898 17.06C10.1398 17.16 10.0898 17.29 10.0698 17.58C10.0498 17.88 10.0498 18.26 10.0498 18.83V26.43C10.0498 27 10.0498 27.39 10.0698 27.68C10.0998 27.97 10.1398 28.11 10.1898 28.2C10.3098 28.43 10.4898 28.62 10.7298 28.74C10.8298 28.79 10.9598 28.84 11.2498 28.86C11.5498 28.88 11.9298 28.88 12.4998 28.88H14.5498V16.38ZM16.0498 28.88H22.5498V16.38H16.0498V28.88ZM24.0498 28.88H26.0998C26.6698 28.88 27.0598 28.88 27.3498 28.86C27.6398 28.83 27.7798 28.79 27.8698 28.74C28.0998 28.62 28.2898 28.44 28.4098 28.2C28.4598 28.1 28.5098 27.97 28.5298 27.68C28.5498 27.38 28.5498 27 28.5498 26.43V18.83C28.5498 18.26 28.5498 17.87 28.5298 17.58C28.5245 17.4004 28.4838 17.2237 28.4098 17.06C28.2905 16.8281 28.1017 16.6393 27.8698 16.52C27.7698 16.47 27.6398 16.42 27.3498 16.4C27.0498 16.38 26.6698 16.38 26.0998 16.38H24.0498V28.88ZM22.5498 14.88C22.5566 14.6011 22.5297 14.3224 22.4698 14.05C22.3691 13.667 22.169 13.3173 21.8898 13.0364C21.6106 12.7554 21.2622 12.5531 20.8798 12.45C20.357 12.3712 19.8271 12.3511 19.2998 12.39C18.3198 12.39 17.9798 12.39 17.7198 12.47C17.1975 12.606 16.7414 12.9252 16.4348 13.3695C16.1283 13.8137 15.9916 14.3534 16.0498 14.89H22.5498V14.88Z" fill="#652407"/>
</svg>
