<svg width="40" height="41" viewBox="0 0 40 41" fill="none" xmlns="http://www.w3.org/2000/svg">
<rect x="0.660156" y="0.629883" width="38.59" height="40" rx="4" fill="#FFEEE7"/>
<path fill-rule="evenodd" clip-rule="evenodd" d="M10.9792 18.3799C10.6096 19.8571 10.6096 21.4027 10.9792 22.8799H15.3992C15.2789 22.1289 15.212 21.3703 15.1992 20.6099C15.2192 19.8599 15.2792 19.1099 15.3992 18.3799H10.9792ZM11.4892 16.8799H15.7192C16.2215 14.9574 17.0796 13.1462 18.2492 11.5399C16.7741 11.8156 15.388 12.4457 14.2104 13.3759C13.0328 14.3061 12.099 15.5086 11.4892 16.8799ZM19.9492 11.7799C18.7284 13.2851 17.8207 15.019 17.2792 16.8799H22.6192C22.0778 15.019 21.17 13.2851 19.9492 11.7799ZM22.9692 18.3799H16.9292C16.7892 19.1199 16.7192 19.8799 16.6992 20.6299C16.7192 21.3899 16.7992 22.1399 16.9292 22.8799H22.9692C23.1092 22.1399 23.1792 21.3799 23.1992 20.6299C23.1792 19.8699 23.0992 19.1199 22.9692 18.3799ZM24.4992 22.8799H28.9192C29.2888 21.4027 29.2888 19.8571 28.9192 18.3799H24.4992C24.6196 19.1309 24.6865 19.8894 24.6992 20.6499C24.6792 21.3999 24.6192 22.1499 24.4992 22.8799ZM22.6192 24.3799H17.2792C17.8207 26.2407 18.7284 27.9747 19.9492 29.4799C21.17 27.9747 22.0778 26.2407 22.6192 24.3799ZM18.2492 29.7199C17.0827 28.1118 16.2248 26.3011 15.7192 24.3799H11.4892C12.099 25.7511 13.0328 26.9536 14.2104 27.8839C15.388 28.8141 16.7741 29.4442 18.2492 29.7199ZM21.6492 29.7199C22.8158 28.1118 23.6736 26.3011 24.1792 24.3799H28.4092C27.7995 25.7511 26.8656 26.9536 25.688 27.8839C24.5104 28.8141 23.1244 29.4442 21.6492 29.7199ZM28.4092 16.8799C27.7995 15.5086 26.8656 14.3061 25.688 13.3759C24.5104 12.4457 23.1244 11.8156 21.6492 11.5399C22.8158 13.148 23.6736 14.9586 24.1792 16.8799H28.4092ZM9.19922 20.6299C9.19922 19.2182 9.47728 17.8203 10.0175 16.516C10.5578 15.2118 11.3496 14.0267 12.3478 13.0285C13.3461 12.0303 14.5311 11.2384 15.8354 10.6982C17.1396 10.1579 18.5375 9.87988 19.9492 9.87988C21.3609 9.87988 22.7588 10.1579 24.0631 10.6982C25.3673 11.2384 26.5524 12.0303 27.5506 13.0285C28.5488 14.0267 29.3407 15.2118 29.8809 16.516C30.4212 17.8203 30.6992 19.2182 30.6992 20.6299C30.6992 23.481 29.5666 26.2153 27.5506 28.2313C25.5346 30.2473 22.8003 31.3799 19.9492 31.3799C17.0981 31.3799 14.3638 30.2473 12.3478 28.2313C10.3318 26.2153 9.19922 23.481 9.19922 20.6299Z" fill="#652407"/>
</svg>
