<svg width="39" height="41" viewBox="0 0 39 41" fill="none" xmlns="http://www.w3.org/2000/svg">
<rect x="0.330078" y="0.629883" width="38.59" height="40" rx="4" fill="#FFEEE7"/>
<path fill-rule="evenodd" clip-rule="evenodd" d="M21.7902 10.8997C22.1902 10.9897 22.4502 11.3897 22.3602 11.7997L18.3602 29.7997C18.3441 29.901 18.3074 29.998 18.2524 30.0845C18.1974 30.1711 18.1252 30.2455 18.0402 30.3031C17.9553 30.3606 17.8595 30.4001 17.7586 30.4192C17.6578 30.4382 17.5542 30.4364 17.4541 30.4137C17.354 30.3911 17.2597 30.3482 17.1768 30.2877C17.094 30.2271 17.0245 30.1502 16.9726 30.0617C16.9207 29.9732 16.8874 29.875 16.875 29.7732C16.8625 29.6714 16.8711 29.5681 16.9002 29.4697L20.9002 11.4697C20.9902 11.0697 21.3902 10.8097 21.8002 10.8997H21.7902ZM15.1602 15.0997C15.4602 15.3997 15.4602 15.8697 15.1602 16.1597L10.6902 20.6297L15.1602 25.0997C15.2927 25.2418 15.3648 25.4299 15.3614 25.6242C15.3579 25.8185 15.2792 26.0039 15.1418 26.1413C15.0044 26.2787 14.819 26.3574 14.6247 26.3608C14.4304 26.3643 14.2424 26.2921 14.1002 26.1597L9.1002 21.1597C8.95975 21.019 8.88086 20.8284 8.88086 20.6297C8.88086 20.4309 8.95975 20.2403 9.1002 20.0997L14.1002 15.0997C14.4002 14.7997 14.8702 14.7997 15.1602 15.0997ZM24.1002 15.0997C24.4002 14.7997 24.8702 14.7997 25.1602 15.0997L30.1602 20.0997C30.4602 20.3997 30.4602 20.8697 30.1602 21.1597L25.1602 26.1597C25.0915 26.2334 25.0087 26.2925 24.9167 26.3334C24.8247 26.3744 24.7254 26.3965 24.6247 26.3983C24.524 26.4 24.424 26.3815 24.3306 26.3438C24.2372 26.3061 24.1524 26.2499 24.0812 26.1787C24.0099 26.1075 23.9538 26.0227 23.9161 25.9293C23.8784 25.8359 23.8598 25.7358 23.8616 25.6351C23.8634 25.5344 23.8854 25.4351 23.9264 25.3431C23.9674 25.2511 24.0265 25.1683 24.1002 25.0997L28.5702 20.6297L24.1002 16.1597C23.9597 16.019 23.8809 15.8284 23.8809 15.6297C23.8809 15.4309 23.9597 15.2403 24.1002 15.0997Z" fill="#652407"/>
</svg>
