<svg width="40" height="41" viewBox="0 0 40 41" fill="none" xmlns="http://www.w3.org/2000/svg">
<rect x="0.660156" y="0.629883" width="38.59" height="40" rx="4" fill="#FFEEE7"/>
<path fill-rule="evenodd" clip-rule="evenodd" d="M19.8892 11.6494L19.7992 11.6994L19.4292 11.9894L12.6492 17.2594C12.1492 17.6394 12.0292 17.7494 11.9492 17.8594C11.8492 17.9894 11.7892 18.1194 11.7492 18.2694C11.7092 18.4094 11.6992 18.5694 11.6992 19.1894V26.4294C11.6992 26.9994 11.6992 27.3894 11.7192 27.6794C11.7492 27.9694 11.7892 28.1094 11.8392 28.1994C11.9592 28.4294 12.1392 28.6194 12.3792 28.7394C12.4792 28.7894 12.6092 28.8394 12.8992 28.8594C13.1992 28.8794 13.5792 28.8794 14.1492 28.8794H16.1992V22.1994C16.1992 21.9494 16.1992 21.7094 16.2192 21.5094C16.2292 21.2994 16.2692 21.0694 16.3892 20.8394C16.5592 20.5094 16.8292 20.2394 17.1592 20.0694C17.3892 19.9494 17.6192 19.9094 17.8292 19.8994C18.0292 19.8794 18.2692 19.8794 18.5292 19.8794H21.3792C21.6292 19.8794 21.8692 19.8794 22.0692 19.8994C22.2792 19.9094 22.5092 19.9494 22.7392 20.0694C23.0692 20.2394 23.3392 20.5094 23.5092 20.8394C23.6292 21.0694 23.6692 21.2994 23.6792 21.5094C23.6992 21.7094 23.6992 21.9494 23.6992 22.2094V28.8794H25.7492C26.3192 28.8794 26.7092 28.8794 26.9992 28.8594C27.2892 28.8294 27.4292 28.7894 27.5192 28.7394C27.7492 28.6194 27.9392 28.4394 28.0592 28.1994C28.1092 28.0994 28.1592 27.9694 28.1792 27.6794C28.1992 27.3794 28.1992 26.9994 28.1992 26.4294V19.1894C28.1992 18.5794 28.1992 18.4094 28.1492 18.2694C28.1136 18.1227 28.0452 17.9859 27.9492 17.8694C27.7408 17.6421 27.5057 17.4407 27.2492 17.2694L20.4692 11.9894C20.3203 11.8702 20.1668 11.7568 20.0092 11.6494C19.9698 11.6397 19.9286 11.6397 19.8892 11.6494ZM19.4892 10.2094C19.7892 10.1294 20.1092 10.1294 20.4092 10.2094C20.7752 10.3368 21.1094 10.5414 21.3892 10.8094L28.1792 16.0794L28.2392 16.1294C28.6292 16.4294 28.9392 16.6694 29.1592 16.9694C29.3592 17.2394 29.5092 17.5394 29.5992 17.8694C29.6992 18.2294 29.6992 18.6194 29.6992 19.1094V26.4594C29.6992 26.9894 29.6992 27.4394 29.6692 27.7994C29.6376 28.4655 29.3588 29.0959 28.8873 29.5675C28.4157 30.039 27.7853 30.3178 27.1192 30.3494C26.7592 30.3794 26.3192 30.3794 25.7792 30.3794H23.7292L23.3592 30.3694C23.0619 30.3464 22.7825 30.2179 22.5716 30.007C22.3607 29.7961 22.2322 29.5168 22.2092 29.2194L22.1992 28.8494V22.2294C22.1996 21.9891 22.1896 21.7489 22.1692 21.5094C22.1462 21.4672 22.1115 21.4324 22.0692 21.4094L21.9492 21.3894C21.7494 21.3788 21.5493 21.3755 21.3492 21.3794H18.5492C18.3089 21.379 18.0687 21.389 17.8292 21.4094C17.787 21.4324 17.7522 21.4672 17.7292 21.5094L17.7092 21.6294L17.6992 22.2294V29.2194C17.6792 29.3494 17.6492 29.5194 17.5592 29.6994C17.4606 29.8889 17.3151 30.0501 17.1365 30.1673C16.958 30.2846 16.7523 30.3542 16.5392 30.3694L16.1692 30.3794H14.1192C13.5892 30.3794 13.1392 30.3794 12.7792 30.3494C12.4048 30.3326 12.0375 30.2408 11.6992 30.0794C11.1827 29.8159 10.7627 29.3959 10.4992 28.8794C10.3378 28.5411 10.246 28.1739 10.2292 27.7994C10.1992 27.4394 10.1992 26.9994 10.1992 26.4594V19.1094C10.1992 18.6094 10.1992 18.2294 10.2992 17.8694C10.3992 17.5394 10.5392 17.2394 10.7392 16.9694C10.9692 16.6694 11.2692 16.4294 11.6592 16.1294L11.7292 16.0794L18.5092 10.7994L18.5792 10.7494C18.8492 10.5294 19.1492 10.2994 19.4892 10.2094Z" fill="#652407"/>
</svg>
