<svg width="39" height="41" viewBox="0 0 39 41" fill="none" xmlns="http://www.w3.org/2000/svg">
<rect y="0.629883" width="38.59" height="40" rx="4" fill="#FFEEE7"/>
<path fill-rule="evenodd" clip-rule="evenodd" d="M19.3208 12.4099H19.2508L19.1208 12.4399L11.7208 14.0799C11.5289 14.1224 11.3387 14.1725 11.1508 14.2299C11.1159 14.2557 11.0883 14.2902 11.0708 14.3299L11.0608 14.4299L11.0508 14.9099V16.0299C11.0504 16.2702 11.0604 16.5105 11.0808 16.7499C11.1008 16.7899 11.1408 16.8299 11.1808 16.8499L11.3008 16.8699L11.9008 16.8799H26.7008C26.9411 16.8803 27.1813 16.8703 27.4208 16.8499C27.463 16.8269 27.4978 16.7922 27.5208 16.7499L27.5408 16.6299L27.5508 16.0299V14.9099C27.5515 14.7164 27.5449 14.5229 27.5308 14.3299C27.5132 14.2902 27.4857 14.2557 27.4508 14.2299L27.3508 14.1999L26.8808 14.0799L19.4808 12.4399L19.3508 12.4099H19.3208ZM27.0508 18.3799C27.1808 18.3799 27.3108 18.3799 27.4208 18.3599C27.6308 18.3499 27.8608 18.3099 28.0908 18.1899C28.4208 18.0199 28.6908 17.7499 28.8608 17.4199C28.9808 17.1899 29.0208 16.9599 29.0308 16.7499C29.0508 16.5499 29.0508 16.3099 29.0508 16.0499V14.8999L29.0408 14.3299C29.0166 13.9734 28.8839 13.6328 28.6604 13.3539C28.437 13.075 28.1335 12.8712 27.7908 12.7699C27.6058 12.7167 27.419 12.67 27.2308 12.6299L19.8108 10.9899L19.7808 10.9799C19.6808 10.9599 19.5708 10.9299 19.4508 10.9199H19.1508C19.0308 10.9299 18.9208 10.9599 18.8208 10.9799H18.7908L11.3908 12.6299H11.3708L10.8108 12.7699C10.6202 12.8199 10.4406 12.9047 10.2808 13.0199C10.0715 13.1716 9.89836 13.3677 9.77387 13.5942C9.64938 13.8207 9.57661 14.0719 9.56078 14.3299L9.55078 14.8999V16.0699C9.55078 16.3199 9.55078 16.5599 9.57078 16.7599C9.58078 16.9699 9.62078 17.1999 9.74078 17.4299C9.91078 17.7599 10.1808 18.0299 10.5108 18.1999C10.7408 18.3199 10.9708 18.3599 11.1808 18.3699L11.5508 18.3899V24.8899C11.4208 24.8899 11.2908 24.8899 11.1808 24.9099C10.9708 24.9199 10.7408 24.9599 10.5108 25.0799C10.1808 25.2499 9.91078 25.5199 9.74078 25.8499C9.62078 26.0799 9.58078 26.3099 9.57078 26.5199C9.55078 26.7199 9.55078 26.9599 9.55078 27.2199V28.0699C9.55078 28.3199 9.55078 28.5599 9.57078 28.7599C9.58078 28.9699 9.62078 29.1999 9.74078 29.4299C9.91078 29.7599 10.1808 30.0299 10.5108 30.1999C10.7408 30.3199 10.9708 30.3599 11.1808 30.3699C11.3808 30.3899 11.6208 30.3899 11.8808 30.3899H26.7308C26.9808 30.3899 27.2208 30.3899 27.4208 30.3699C27.6308 30.3599 27.8608 30.3199 28.0908 30.1999C28.4208 30.0299 28.6908 29.7599 28.8608 29.4299C28.9808 29.1999 29.0208 28.9699 29.0308 28.7599C29.0508 28.5599 29.0508 28.3199 29.0508 28.0599V27.2099C29.0508 26.9599 29.0508 26.7199 29.0308 26.5199C29.0187 26.2876 28.9609 26.0599 28.8608 25.8499C28.6908 25.5199 28.4208 25.2499 28.0908 25.0799C27.8808 24.9798 27.6531 24.922 27.4208 24.9099L27.0508 24.8899V18.3899V18.3799ZM25.5508 18.3799H22.5508V24.8799H25.5508V18.3799ZM11.9008 26.3799C11.6605 26.3795 11.4202 26.3895 11.1808 26.4099C11.1385 26.4329 11.1038 26.4677 11.0808 26.5099L11.0608 26.6299L11.0508 27.2299V28.0299C11.0504 28.2702 11.0604 28.5105 11.0808 28.7499C11.1008 28.7899 11.1408 28.8299 11.1808 28.8499L11.3008 28.8699L11.9008 28.8799H26.7008C26.9411 28.8803 27.1813 28.8703 27.4208 28.8499C27.463 28.8269 27.4978 28.7922 27.5208 28.7499L27.5408 28.6299L27.5508 28.0299V27.2299C27.5511 26.9896 27.5411 26.7494 27.5208 26.5099C27.4978 26.4677 27.463 26.4329 27.4208 26.4099L27.3008 26.3899C27.101 26.3794 26.9008 26.376 26.7008 26.3799H11.9008ZM13.0508 24.8799H16.0508V18.3799H13.0508V24.8799ZM17.5508 18.3799V24.8799H21.0508V18.3799H17.5508Z" fill="#652407"/>
</svg>
