<svg width="39" height="41" viewBox="0 0 39 41" fill="none" xmlns="http://www.w3.org/2000/svg">
<rect x="0.330078" y="0.629883" width="38.59" height="40" rx="4" fill="#FFEEE7"/>
<path fill-rule="evenodd" clip-rule="evenodd" d="M17.1299 12.3799C16.2679 12.3799 15.4413 12.7223 14.8318 13.3318C14.2223 13.9413 13.8799 14.7679 13.8799 15.6299C13.8799 16.4918 14.2223 17.3185 14.8318 17.928C15.4413 18.5375 16.2679 18.8799 17.1299 18.8799C17.9918 18.8799 18.8185 18.5375 19.428 17.928C20.0375 17.3185 20.3799 16.4918 20.3799 15.6299C20.3799 14.7679 20.0375 13.9413 19.428 13.3318C18.8185 12.7223 17.9918 12.3799 17.1299 12.3799ZM12.3799 15.6299C12.3799 14.3701 12.8803 13.1619 13.7711 12.2711C14.6619 11.3803 15.8701 10.8799 17.1299 10.8799C18.3897 10.8799 19.5978 11.3803 20.4886 12.2711C21.3794 13.1619 21.8799 14.3701 21.8799 15.6299C21.8799 16.8897 21.3794 18.0978 20.4886 18.9886C19.5978 19.8794 18.3897 20.3799 17.1299 20.3799C15.8701 20.3799 14.6619 19.8794 13.7711 18.9886C12.8803 18.0978 12.3799 16.8897 12.3799 15.6299ZM22.4299 11.6299C22.5899 11.2599 23.0299 11.0699 23.4099 11.2299C24.2849 11.5858 25.034 12.1945 25.5613 12.9783C26.0887 13.762 26.3703 14.6852 26.3703 15.6299C26.3703 16.5745 26.0887 17.4977 25.5613 18.2815C25.034 19.0653 24.2849 19.674 23.4099 20.0299C23.3177 20.0718 23.218 20.0946 23.1168 20.0969C23.0156 20.0993 22.9149 20.0811 22.8209 20.0435C22.7269 20.0059 22.6415 19.9496 22.5698 19.8781C22.4981 19.8066 22.4416 19.7213 22.4038 19.6274C22.366 19.5335 22.3475 19.4329 22.3496 19.3317C22.3517 19.2304 22.3743 19.1307 22.416 19.0384C22.4577 18.9461 22.5176 18.8632 22.5922 18.7947C22.6667 18.7263 22.7544 18.6736 22.8499 18.6399C23.4483 18.3962 23.9605 17.9797 24.321 17.4436C24.6816 16.9074 24.8742 16.276 24.8742 15.6299C24.8742 14.9838 24.6816 14.3523 24.321 13.8162C23.9605 13.2801 23.4483 12.8636 22.8499 12.6199C22.7576 12.5835 22.6735 12.5293 22.6024 12.4602C22.5312 12.3911 22.4745 12.3086 22.4354 12.2175C22.3964 12.1264 22.3758 12.0284 22.3748 11.9293C22.3739 11.8301 22.3926 11.7318 22.4299 11.6399V11.6299ZM15.5999 22.8899H18.6599C19.5599 22.8899 20.2899 22.8899 20.8699 22.9299C21.4699 22.9699 21.9699 23.0599 22.4499 23.2499C23.6134 23.732 24.5378 24.6564 25.0199 25.8199C25.2199 26.2999 25.2999 26.7999 25.3399 27.3999C25.3799 27.9799 25.3799 28.6999 25.3799 29.6099V29.6299C25.3799 29.8288 25.3009 30.0196 25.1602 30.1602C25.0196 30.3009 24.8288 30.3799 24.6299 30.3799C24.431 30.3799 24.2402 30.3009 24.0996 30.1602C23.9589 30.0196 23.8799 29.8288 23.8799 29.6299C23.8799 28.6899 23.8799 28.0199 23.8399 27.4899C23.8099 26.9699 23.7399 26.6499 23.6399 26.3899C23.4743 25.9934 23.2317 25.6337 22.9261 25.3316C22.6206 25.0295 22.2582 24.791 21.8599 24.6299C21.5083 24.4962 21.136 24.4251 20.7599 24.4199C20.2299 24.3799 19.5599 24.3799 18.6199 24.3799H15.6299C14.6899 24.3799 14.0199 24.3799 13.4899 24.4199C12.9699 24.4499 12.6499 24.5199 12.3899 24.6199C11.5899 24.9599 10.9599 25.5899 10.6299 26.3899C10.5199 26.6499 10.4499 26.9699 10.4199 27.4899C10.3799 28.0199 10.3799 28.6899 10.3799 29.6299C10.3799 29.8288 10.3009 30.0196 10.1602 30.1602C10.0196 30.3009 9.8288 30.3799 9.62988 30.3799C9.43097 30.3799 9.24021 30.3009 9.09955 30.1602C8.9589 30.0196 8.87988 29.8288 8.87988 29.6299V29.5999C8.87988 28.6999 8.87988 27.9699 8.91988 27.3899C8.95988 26.7899 9.04988 26.2899 9.23988 25.8099C9.72197 24.6464 10.6464 23.722 11.8099 23.2399C12.2899 23.0399 12.7899 22.9599 13.3899 22.9199C13.9699 22.8799 14.6899 22.8799 15.5999 22.8799V22.8899ZM25.8999 23.5799C25.9999 23.1799 26.4199 22.9399 26.8199 23.0399C27.8392 23.3037 28.7419 23.8986 29.3863 24.7312C30.0307 25.5639 30.3802 26.587 30.3799 27.6399V29.6399C30.3799 29.8388 30.3009 30.0296 30.1602 30.1702C30.0196 30.3109 29.8288 30.3899 29.6299 30.3899C29.431 30.3899 29.2402 30.3109 29.0996 30.1702C28.9589 30.0296 28.8799 29.8388 28.8799 29.6399V27.6399C28.8805 26.9185 28.641 26.2174 28.1992 25.6471C27.7575 25.0768 27.1385 24.6697 26.4399 24.4899C26.2479 24.4404 26.0832 24.3169 25.982 24.1463C25.8808 23.9758 25.8513 23.7721 25.8999 23.5799Z" fill="#652407"/>
</svg>
