<svg width="40" height="41" viewBox="0 0 40 41" fill="none" xmlns="http://www.w3.org/2000/svg">
<rect x="0.660156" y="0.629883" width="38.59" height="40" rx="4" fill="#FFEEE7"/>
<path fill-rule="evenodd" clip-rule="evenodd" d="M15.7202 10.8799H24.1802C24.9902 10.8799 25.6502 10.8799 26.1802 10.9199C26.7302 10.9699 27.2102 11.0599 27.6502 11.2899C28.3502 11.6499 28.9302 12.2199 29.2902 12.9299C29.5202 13.3699 29.6102 13.8499 29.6602 14.3999C29.7002 14.9299 29.7002 15.5899 29.7002 16.3999V24.8599C29.7002 25.6799 29.7002 26.3299 29.6602 26.8599C29.6358 27.3696 29.51 27.8693 29.2902 28.3299C28.9302 29.0299 28.3602 29.6099 27.6502 29.9699C27.2102 30.1999 26.7302 30.2899 26.1802 30.3399C25.6502 30.3799 25.0002 30.3799 24.1802 30.3799H15.7202C14.9102 30.3799 14.2502 30.3799 13.7202 30.3399C13.2105 30.3154 12.7107 30.1897 12.2502 29.9699C11.544 29.6102 10.9698 29.0361 10.6102 28.3299C10.3907 27.8692 10.2649 27.3696 10.2402 26.8599C10.2002 26.3299 10.2002 25.6699 10.2002 24.8599V16.3999C10.2002 15.5899 10.2002 14.9299 10.2402 14.3999C10.2902 13.8499 10.3802 13.3699 10.6102 12.9299C10.9702 12.2299 11.5402 11.6499 12.2502 11.2899C12.6902 11.0599 13.1702 10.9699 13.7202 10.9199C14.2502 10.8799 14.9102 10.8799 15.7202 10.8799ZM13.8402 12.4199C13.3902 12.4599 13.1302 12.5199 12.9302 12.6199C12.5102 12.8399 12.1602 13.1899 11.9502 13.6099C11.8502 13.8099 11.7802 14.0699 11.7402 14.5199C11.7002 14.9799 11.7002 15.5799 11.7002 16.4299V24.8299C11.7002 25.6799 11.7002 26.2799 11.7402 26.7299C11.7802 27.1899 11.8402 27.4499 11.9402 27.6499C12.1602 28.0699 12.5102 28.4199 12.9302 28.6299C13.1302 28.7299 13.3902 28.7999 13.8402 28.8399C14.3002 28.8799 14.9002 28.8799 15.7502 28.8799H24.1502C25.0002 28.8799 25.6002 28.8799 26.0502 28.8399C26.5102 28.7999 26.7702 28.7399 26.9702 28.6399C27.3902 28.4199 27.7402 28.0699 27.9502 27.6499C28.0502 27.4499 28.1202 27.1899 28.1602 26.7399C28.2002 26.2799 28.2002 25.6799 28.2002 24.8299V16.4299C28.2002 15.5799 28.2002 14.9799 28.1602 14.5299C28.1549 14.213 28.0869 13.9003 27.9602 13.6099C27.7422 13.1867 27.3956 12.8436 26.9702 12.6299C26.6835 12.501 26.3744 12.4296 26.0602 12.4199C25.6002 12.3799 25.0002 12.3799 24.1502 12.3799H15.7502C14.9002 12.3799 14.3002 12.3799 13.8502 12.4199H13.8402ZM16.4502 14.3799C16.8602 14.3799 17.2002 14.7199 17.2002 15.1299V16.3799H18.4502C18.6491 16.3799 18.8399 16.4589 18.9805 16.5996C19.1212 16.7402 19.2002 16.931 19.2002 17.1299C19.2002 17.3288 19.1212 17.5196 18.9805 17.6602C18.8399 17.8009 18.6491 17.8799 18.4502 17.8799H17.2002V19.1299C17.2002 19.3288 17.1212 19.5196 16.9805 19.6602C16.8399 19.8009 16.6491 19.8799 16.4502 19.8799C16.2513 19.8799 16.0605 19.8009 15.9199 19.6602C15.7792 19.5196 15.7002 19.3288 15.7002 19.1299V17.8799H14.4502C14.2513 17.8799 14.0605 17.8009 13.9199 17.6602C13.7792 17.5196 13.7002 17.3288 13.7002 17.1299C13.7002 16.931 13.7792 16.7402 13.9199 16.5996C14.0605 16.4589 14.2513 16.3799 14.4502 16.3799H15.7002V15.1299C15.7002 14.7199 16.0402 14.3799 16.4502 14.3799ZM24.9202 14.5999C24.9889 14.5262 25.0717 14.4671 25.1637 14.4261C25.2557 14.3851 25.355 14.3631 25.4557 14.3613C25.5564 14.3595 25.6564 14.378 25.7498 14.4158C25.8432 14.4535 25.928 14.5096 25.9992 14.5808C26.0705 14.6521 26.1266 14.7369 26.1643 14.8303C26.202 14.9237 26.2206 15.0237 26.2188 15.1244C26.217 15.2251 26.195 15.3244 26.154 15.4164C26.113 15.5084 26.0539 15.5912 25.9802 15.6599L14.9802 26.6599C14.838 26.7924 14.65 26.8645 14.4557 26.8611C14.2614 26.8576 14.076 26.7789 13.9386 26.6415C13.8012 26.5041 13.7224 26.3187 13.719 26.1244C13.7156 25.9301 13.7877 25.7421 13.9202 25.5999L24.9202 14.5999ZM20.7002 24.1299C20.7002 23.7199 21.0402 23.3799 21.4502 23.3799H25.4502C25.6491 23.3799 25.8399 23.4589 25.9805 23.5996C26.1212 23.7402 26.2002 23.931 26.2002 24.1299C26.2002 24.3288 26.1212 24.5196 25.9805 24.6602C25.8399 24.8009 25.6491 24.8799 25.4502 24.8799H21.4502C21.2513 24.8799 21.0605 24.8009 20.9199 24.6602C20.7792 24.5196 20.7002 24.3288 20.7002 24.1299Z" fill="#652407"/>
</svg>
