<svg width="36" height="28" viewBox="0 0 36 28" fill="none" xmlns="http://www.w3.org/2000/svg">
<g clip-path="url(#clip0_2_1922)">
<path d="M31.4193 11.8649C31.4193 19.8195 18.3674 26.6376 18.3674 26.6376C18.3674 26.6376 5.31543 19.8195 5.31543 11.8649C5.31543 9.15251 6.69054 6.55117 9.13826 4.63319C11.586 2.71521 14.9058 1.6377 18.3674 1.6377C21.829 1.6377 25.1488 2.71521 27.5965 4.63319C30.0442 6.55117 31.4193 9.15251 31.4193 11.8649Z" stroke="white" stroke-width="1.30016" stroke-linecap="round" stroke-linejoin="round"/>
<path d="M18.3673 15.2742C20.7701 15.2742 22.7179 13.7479 22.7179 11.8651C22.7179 9.98235 20.7701 8.45605 18.3673 8.45605C15.9645 8.45605 14.0166 9.98235 14.0166 11.8651C14.0166 13.7479 15.9645 15.2742 18.3673 15.2742Z" stroke="white" stroke-width="1.30016" stroke-linecap="round" stroke-linejoin="round"/>
</g>
<defs>
<clipPath id="clip0_2_1922">
<rect width="34.8052" height="27.2727" fill="white" transform="translate(0.963867 0.500977)"/>
</clipPath>
</defs>
</svg>
