<svg width="41" height="32" viewBox="0 0 41 32" fill="none" xmlns="http://www.w3.org/2000/svg">
<g clip-path="url(#clip0_2_1930)">
<ellipse cx="20.2718" cy="16.2606" rx="20.0775" ry="15.7323" fill="white"/>
<path d="M24.905 26.7489V22.8881C24.9532 22.4124 24.8703 21.9342 24.6617 21.4853C24.4531 21.0364 24.1236 20.627 23.6952 20.2844C27.7364 19.9352 31.9835 18.7481 31.9835 13.3012C31.9832 11.9083 31.292 10.5689 30.053 9.56015C30.6397 8.34159 30.5982 6.99467 29.9372 5.79919C29.9372 5.79919 28.4185 5.45003 24.905 7.27564C21.9551 6.65595 18.8457 6.65595 15.8958 7.27564C12.3823 5.45003 10.8636 5.79919 10.8636 5.79919C10.2026 6.99467 10.1611 8.34159 10.7478 9.56015C9.49953 10.5764 8.80762 11.9279 8.81724 13.3311C8.81724 18.7381 13.0644 19.9253 17.1056 20.3143C16.6822 20.6535 16.3556 21.0579 16.1472 21.5014C15.9388 21.9448 15.8531 22.4173 15.8958 22.8881V26.7489M15.8958 23.756C9.46075 25.2525 9.46075 21.262 6.88672 20.7632L15.8958 23.756Z" stroke="black" stroke-linecap="round" stroke-linejoin="round"/>
</g>
<defs>
<clipPath id="clip0_2_1930">
<rect width="40.1549" height="31.4646" fill="white" transform="translate(0.194336 0.52832)"/>
</clipPath>
</defs>
</svg>
