<svg width="42" height="32" viewBox="0 0 42 32" fill="none" xmlns="http://www.w3.org/2000/svg">
<g clip-path="url(#clip0_2_1934)">
<ellipse cx="20.9652" cy="16.2606" rx="20.0775" ry="15.7323" fill="white"/>
<path d="M32.1515 11.9625C32.016 11.5198 31.7401 11.1142 31.3515 10.7866C30.9629 10.459 30.4755 10.2211 29.9386 10.0969C27.9765 9.70508 20.1285 9.70508 20.1285 9.70508C20.1285 9.70508 12.2804 9.70508 10.3184 10.1342C9.78143 10.2584 9.29404 10.4963 8.90548 10.8239C8.51693 11.1515 8.24096 11.5571 8.10545 11.9998C7.74638 13.6281 7.57073 15.2799 7.58073 16.9344C7.56793 18.6013 7.74359 20.2657 8.10545 21.9063C8.25484 22.3352 8.53699 22.7254 8.92465 23.0391C9.3123 23.3529 9.79235 23.5795 10.3184 23.6973C12.2804 24.1264 20.1285 24.1264 20.1285 24.1264C20.1285 24.1264 27.9765 24.1264 29.9386 23.6973C30.4755 23.573 30.9629 23.3351 31.3515 23.0075C31.7401 22.68 32.016 22.2743 32.1515 21.8316C32.5078 20.2156 32.6835 18.5764 32.6763 16.9344C32.6891 15.2674 32.5134 13.603 32.1515 11.9625V11.9625Z" stroke="black" stroke-linecap="round" stroke-linejoin="round"/>
<path d="M17.6201 20.1938L24.3126 16.9162L17.6201 13.6387V20.1938Z" stroke="black" stroke-linecap="round" stroke-linejoin="round"/>
</g>
<defs>
<clipPath id="clip0_2_1934">
<rect width="40.1549" height="31.4646" fill="white" transform="translate(0.887695 0.52832)"/>
</clipPath>
</defs>
</svg>
