<svg width="17" height="16" viewBox="0 0 17 16" fill="none" xmlns="http://www.w3.org/2000/svg">
<path fill-rule="evenodd" clip-rule="evenodd" d="M6.94661 2.5C5.56593 2.5 4.44664 3.61929 4.44664 5C4.44664 6.38071 5.56593 7.5 6.94661 7.5C8.32735 7.5 9.44661 6.38071 9.44661 5C9.44661 3.61929 8.32735 2.5 6.94661 2.5ZM3.44664 5C3.44664 3.06701 5.01365 1.5 6.94661 1.5C8.87961 1.5 10.4466 3.06701 10.4466 5C10.4466 6.933 8.87961 8.5 6.94661 8.5C5.01365 8.5 3.44664 6.933 3.44664 5ZM12.4264 6.81313C13.0819 6.15761 14.1447 6.1576 14.8002 6.81307C15.4557 7.4686 15.4557 8.5314 14.8002 9.18693L10.4956 13.4915C10.4909 13.4961 10.4862 13.5009 10.4814 13.5057C10.4231 13.5641 10.3605 13.6268 10.2878 13.6802C10.2241 13.7269 10.1559 13.7671 10.0842 13.8C10.0021 13.8377 9.91701 13.8619 9.83755 13.8845C9.83108 13.8864 9.82461 13.8882 9.81821 13.89L7.75068 14.4807C7.57608 14.5307 7.38815 14.4819 7.25975 14.3535C7.13135 14.2251 7.08268 14.0373 7.13255 13.8627L7.72328 11.7951C7.72508 11.7887 7.72695 11.7822 7.72881 11.7757C7.75141 11.6963 7.77561 11.6111 7.81328 11.5291C7.84621 11.4573 7.88635 11.3891 7.93308 11.3255C7.98655 11.2527 8.04915 11.1902 8.10768 11.1319C8.11241 11.1271 8.11715 11.1224 8.12188 11.1177L12.4264 6.81313ZM14.0931 7.5202C13.8281 7.25527 13.3985 7.25527 13.1335 7.5202L8.82895 11.8248C8.79055 11.8632 8.76941 11.8844 8.75375 11.901C8.74021 11.9154 8.73821 11.9186 8.73921 11.9173C8.73248 11.9264 8.72675 11.9361 8.72208 11.9464C8.72275 11.9449 8.72095 11.9482 8.71495 11.967C8.70801 11.9887 8.69975 12.0176 8.68481 12.0698L8.34135 13.272L9.54355 12.9285C9.59575 12.9136 9.62455 12.9053 9.64628 12.8984C9.66508 12.8924 9.66841 12.8905 9.66695 12.8913C9.67721 12.8865 9.68695 12.8808 9.69601 12.8741C9.69468 12.8751 9.69795 12.8731 9.71228 12.8595C9.72888 12.8439 9.75015 12.8227 9.78855 12.7843L14.0931 8.4798C14.3581 8.2148 14.3581 7.7852 14.0931 7.5202ZM5.18463 9.83333C5.21599 9.83333 5.24777 9.83333 5.27998 9.83333H6.27998C6.55612 9.83333 6.77997 10.0572 6.77997 10.3333C6.77997 10.6095 6.55612 10.8333 6.27998 10.8333H5.27998C4.31322 10.8333 3.94069 10.8387 3.65102 10.9266C2.95855 11.1367 2.41666 11.6786 2.20661 12.3711C2.11873 12.6607 2.11331 13.0333 2.11331 14C2.11331 14.2761 1.88945 14.5 1.61331 14.5C1.33717 14.5 1.11331 14.2761 1.11331 14C1.11331 13.9678 1.1133 13.936 1.11329 13.9047C1.11311 13.0659 1.11299 12.5313 1.24967 12.0807C1.55667 11.0687 2.34867 10.2767 3.36074 9.96967C3.81129 9.833 4.34589 9.83313 5.18463 9.83333Z" fill="white"/>
</svg>
