<svg width="21" height="20" viewBox="0 0 21 20" fill="none" xmlns="http://www.w3.org/2000/svg">
<path fill-rule="evenodd" clip-rule="evenodd" d="M10.6393 2.29199C7.30599 2.29199 4.59766 5.00033 4.59766 8.33366C4.59766 10.3337 5.69766 11.8503 7.13099 13.342C7.47266 13.7003 7.83099 14.0503 8.19766 14.4087L8.23932 14.4503C8.60599 14.817 8.98932 15.192 9.34766 15.567C9.81674 16.0503 10.2485 16.5684 10.6393 17.117C11.0301 16.5684 11.4619 16.0503 11.931 15.567C12.2893 15.192 12.6727 14.817 13.0393 14.4503L13.081 14.4087C13.4477 14.0503 13.806 13.7003 14.1477 13.342C15.581 11.842 16.681 10.342 16.681 8.33366C16.681 5.00033 13.9727 2.29199 10.6393 2.29199ZM3.34766 8.33366C3.34766 6.39979 4.11588 4.54512 5.48334 3.17767C6.85079 1.81022 8.70545 1.04199 10.6393 1.04199C12.5732 1.04199 14.4279 1.81022 15.7953 3.17767C17.1628 4.54512 17.931 6.39979 17.931 8.33366C17.931 10.8503 16.531 12.667 15.0477 14.2087C14.6893 14.5837 14.3227 14.942 13.9643 15.292L13.9227 15.342C13.5477 15.7087 13.1727 16.067 12.8393 16.4253C12.1477 17.1587 11.5727 17.8587 11.1977 18.617C11.1456 18.7204 11.0658 18.8074 10.9673 18.8682C10.8687 18.9289 10.7551 18.9611 10.6393 18.9611C10.5235 18.9611 10.41 18.9289 10.3114 18.8682C10.2128 18.8074 10.133 18.7204 10.081 18.617C9.70599 17.867 9.13099 17.1587 8.43932 16.4337C8.10599 16.067 7.73099 15.7087 7.35599 15.342L7.31432 15.292C6.95599 14.942 6.58932 14.5837 6.23099 14.2087C4.74766 12.667 3.34766 10.8503 3.34766 8.33366ZM10.6393 6.04199C10.142 6.04199 9.66513 6.23954 9.3135 6.59117C8.96187 6.9428 8.76432 7.41971 8.76432 7.91699C8.76432 8.41427 8.96187 8.89119 9.3135 9.24282C9.66513 9.59445 10.142 9.79199 10.6393 9.79199C11.1366 9.79199 11.6135 9.59445 11.9651 9.24282C12.3168 8.89119 12.5143 8.41427 12.5143 7.91699C12.5143 7.41971 12.3168 6.9428 11.9651 6.59117C11.6135 6.23954 11.1366 6.04199 10.6393 6.04199ZM7.51432 7.91699C7.51432 7.08819 7.84356 6.29333 8.42961 5.70728C9.01567 5.12123 9.81052 4.79199 10.6393 4.79199C11.4681 4.79199 12.263 5.12123 12.849 5.70728C13.4351 6.29333 13.7643 7.08819 13.7643 7.91699C13.7643 8.74579 13.4351 9.54065 12.849 10.1267C12.263 10.7128 11.4681 11.042 10.6393 11.042C9.81052 11.042 9.01567 10.7128 8.42961 10.1267C7.84356 9.54065 7.51432 8.74579 7.51432 7.91699Z" fill="#777584"/>
</svg>
