<svg width="25" height="24" viewBox="0 0 25 24" fill="none" xmlns="http://www.w3.org/2000/svg">
<path fill-rule="evenodd" clip-rule="evenodd" d="M6.41075 9.47015C6.71075 9.17015 7.18075 9.17015 7.47075 9.47015L12.9407 14.9402L18.4107 9.47015C18.4794 9.39647 18.5622 9.33736 18.6542 9.29637C18.7462 9.25538 18.8455 9.23334 18.9462 9.23156C19.0469 9.22979 19.147 9.24831 19.2403 9.28603C19.3337 9.32375 19.4186 9.3799 19.4898 9.45112C19.561 9.52233 19.6171 9.60717 19.6549 9.70056C19.6926 9.79394 19.7111 9.89397 19.7093 9.99468C19.7076 10.0954 19.6855 10.1947 19.6445 10.2867C19.6035 10.3787 19.5444 10.4615 19.4707 10.5302L13.4707 16.5302C13.1707 16.8302 12.7007 16.8302 12.4107 16.5302L6.41075 10.5302C6.2703 10.3895 6.19141 10.1989 6.19141 10.0002C6.19141 9.8014 6.2703 9.61078 6.41075 9.47015Z" fill="#777584"/>
</svg>
