<svg width="17" height="16" viewBox="0 0 17 16" fill="none" xmlns="http://www.w3.org/2000/svg">
<path fill-rule="evenodd" clip-rule="evenodd" d="M8.19987 1.3335C4.51787 1.3335 1.5332 4.31816 1.5332 8.00016C1.5332 11.6822 4.51787 14.6668 8.19987 14.6668C11.8819 14.6668 14.8665 11.6822 14.8665 8.00016C14.8665 4.31816 11.8819 1.3335 8.19987 1.3335ZM8.19987 2.66683C11.1452 2.66683 13.5332 5.05483 13.5332 8.00016C13.5332 9.06503 13.2168 10.0542 12.6791 10.8869L12.166 10.4898C11.1313 9.69176 9.22454 9.3335 8.19987 9.3335C7.1752 9.3335 5.26772 9.69176 4.23372 10.4898L3.7207 10.8882C3.18256 10.0554 2.86654 9.06543 2.86654 8.00016C2.86654 5.05483 5.25454 2.66683 8.19987 2.66683ZM8.19987 3.8335C7.0052 3.8335 6.0332 4.8055 6.0332 6.00016C6.0332 7.19483 7.0052 8.16683 8.19987 8.16683C9.39454 8.16683 10.3665 7.19483 10.3665 6.00016C10.3665 4.8055 9.39454 3.8335 8.19987 3.8335ZM8.19987 5.16683C8.6592 5.16683 9.0332 5.54083 9.0332 6.00016C9.0332 6.4595 8.6592 6.8335 8.19987 6.8335C7.74054 6.8335 7.36654 6.4595 7.36654 6.00016C7.36654 5.54083 7.74054 5.16683 8.19987 5.16683ZM8.19987 10.6668C10.267 10.6668 11.3786 11.4458 11.8991 11.8361C10.9399 12.7614 9.6378 13.3335 8.19987 13.3335C6.76197 13.3335 5.45988 12.7614 4.50065 11.8361C5.02114 11.4458 6.13273 10.6668 8.19987 10.6668ZM12.1413 11.5835C12.0681 11.6638 11.9951 11.7447 11.9173 11.8205C11.9949 11.7452 12.0675 11.6635 12.1413 11.5835Z" fill="#6E00BE"/>
</svg>
