<svg width="21" height="20" viewBox="0 0 21 20" fill="none" xmlns="http://www.w3.org/2000/svg">
<path d="M10.7607 1.87525C10.8273 1.87529 10.894 1.87529 10.9607 1.87525C11.6357 1.87525 12.1023 1.87525 12.5023 1.98359C13.2024 2.16938 13.8162 2.59258 14.2387 3.18083C14.6613 3.76908 14.8664 4.48585 14.819 5.20859H16.5523C16.994 5.20859 17.369 5.20859 17.669 5.23359C18.2241 5.25992 18.7494 5.49226 19.1424 5.88521C19.5353 6.27816 19.7677 6.80349 19.794 7.35859C19.819 7.65859 19.819 8.02525 19.819 8.47525V14.8586C19.819 15.3003 19.819 15.6753 19.794 15.9753C19.7677 16.5303 19.5353 17.0557 19.1424 17.4486C18.7494 17.8416 18.2241 18.0739 17.669 18.1003C17.369 18.1253 17.0023 18.1253 16.5523 18.1253H5.16901C4.72734 18.1253 4.35234 18.1253 4.05234 18.1003C3.74031 18.0862 3.43426 18.0097 3.15234 17.8753C2.72192 17.6557 2.37192 17.3057 2.15234 16.8753C2.01786 16.5933 1.94135 16.2873 1.92734 15.9753C1.90234 15.6753 1.90234 15.3086 1.90234 14.8586V8.47525C1.90234 8.03359 1.90234 7.65859 1.92734 7.35859C1.95368 6.80349 2.18601 6.27816 2.57896 5.88521C2.97191 5.49226 3.49725 5.25992 4.05234 5.23359C4.35234 5.20859 4.71901 5.20859 5.16901 5.20859H6.90234C6.85493 4.48585 7.06004 3.76908 7.48261 3.18083C7.90517 2.59258 8.51895 2.16938 9.21901 1.98359C9.72644 1.88383 10.2443 1.84745 10.7607 1.87525ZM6.90234 6.45859H5.19401C4.71901 6.45859 4.39401 6.45859 4.15234 6.47525C3.91068 6.50025 3.79401 6.53359 3.71901 6.57525C3.52734 6.67525 3.36901 6.82525 3.26901 7.02525C3.22734 7.10859 3.18568 7.21692 3.16901 7.45859C3.15234 7.70859 3.15234 8.02525 3.15234 8.50025V14.8336C3.15234 15.3086 3.15234 15.6336 3.16901 15.8753C3.19401 16.1169 3.22734 16.2336 3.26901 16.3086C3.36901 16.5003 3.51901 16.6586 3.71901 16.7586C3.80234 16.8003 3.91068 16.8419 4.15234 16.8586C4.40234 16.8753 4.71901 16.8753 5.19401 16.8753H6.90234V6.45859ZM8.15234 16.8753H13.569V6.45859H8.15234V16.8753ZM14.819 16.8753H16.5273C17.0023 16.8753 17.3273 16.8753 17.569 16.8586C17.8107 16.8336 17.9273 16.8003 18.0023 16.7586C18.194 16.6586 18.3523 16.5086 18.4523 16.3086C18.494 16.2253 18.5357 16.1169 18.5523 15.8753C18.569 15.6253 18.569 15.3086 18.569 14.8336V8.50025C18.569 8.02525 18.569 7.70025 18.5523 7.45859C18.548 7.30896 18.514 7.16168 18.4523 7.02525C18.353 6.83198 18.1956 6.67464 18.0023 6.57525C17.919 6.53359 17.8107 6.49192 17.569 6.47525C17.319 6.45859 17.0023 6.45859 16.5273 6.45859H14.819V16.8753ZM13.569 5.20859C13.5747 4.97619 13.5523 4.74396 13.5023 4.51692C13.4184 4.19772 13.2517 3.90634 13.019 3.67222C12.7863 3.4381 12.496 3.26955 12.1773 3.18359C11.7417 3.11795 11.3001 3.10118 10.8607 3.13359C10.044 3.13359 9.76068 3.13359 9.54401 3.20025C9.10872 3.31358 8.72867 3.57961 8.4732 3.94982C8.21772 4.32003 8.10385 4.76974 8.15234 5.21692H13.569V5.20859Z" fill="#777584"/>
</svg>
