<svg width="21" height="20" viewBox="0 0 21 20" fill="none" xmlns="http://www.w3.org/2000/svg">
<path fill-rule="evenodd" clip-rule="evenodd" d="M10.0859 3.1248C8.48352 3.1248 6.94679 3.76133 5.81376 4.89436C4.68073 6.02739 4.0442 7.56411 4.0442 9.16646C4.0442 10.7688 4.68073 12.3055 5.81376 13.4386C6.94679 14.5716 8.48352 15.2081 10.0859 15.2081C11.6882 15.2081 13.2249 14.5716 14.358 13.4386C15.491 12.3055 16.1275 10.7688 16.1275 9.16646C16.1275 7.56411 15.491 6.02739 14.358 4.89436C13.2249 3.76133 11.6882 3.1248 10.0859 3.1248ZM15.6692 13.8581C16.8796 12.42 17.4879 10.5699 17.3671 8.69405C17.2463 6.81819 16.4057 5.06146 15.0207 3.79048C13.6358 2.5195 11.8135 1.83247 9.93416 1.87277C8.05485 1.91307 6.26369 2.67759 4.93451 4.00678C3.60533 5.33596 2.84081 7.12711 2.80051 9.00643C2.7602 10.8857 3.44723 12.708 4.71821 14.093C5.98919 15.4779 7.74592 16.3185 9.62179 16.4393C11.4976 16.5602 13.3477 15.9519 14.7859 14.7415L17.9775 17.9415C18.0347 18.0029 18.1037 18.0521 18.1804 18.0863C18.2571 18.1204 18.3398 18.1388 18.4238 18.1403C18.5077 18.1418 18.591 18.1263 18.6689 18.0949C18.7467 18.0635 18.8174 18.0167 18.8767 17.9573C18.9361 17.898 18.9829 17.8273 19.0143 17.7495C19.0457 17.6716 19.0612 17.5883 19.0597 17.5044C19.0582 17.4204 19.0398 17.3377 19.0057 17.261C18.9715 17.1843 18.9223 17.1153 18.8609 17.0581L15.6609 13.8581H15.6692Z" fill="#777584"/>
</svg>
